<svg width="1001" height="1000" viewBox="0 0 1001 1000" fill="none" xmlns="http://www.w3.org/2000/svg">
<rect width="890" height="924" transform="translate(73.0036 36.9378)" fill="white"/>
<path fill-rule="evenodd" clip-rule="evenodd" d="M36.1156 1.51884C23.5976 4.88484 10.2936 15.5098 5.05958 26.3218C-0.31242 37.4188 0.0285804 5.49686 0.0155804 499.478C0.00258035 1004.72 -0.54542 962.499 6.19058 975.138C9.79858 981.907 19.7116 991.655 26.1316 994.747C37.7116 1000.32 2.54156 999.938 500.004 999.938C900.469 999.938 958.292 999.754 963.258 998.46C972.218 996.126 977.845 993.018 984.671 986.633C991.809 979.955 997.325 970.111 999.005 961.052C1000.4 953.504 1000.38 46.2098 998.983 38.8288C995.494 20.4298 979.403 4.32684 961.118 0.936835C957.578 0.279835 799.013 -0.0391642 498.618 0.00383585C102.746 0.0608358 40.7816 0.263836 36.1156 1.51884ZM818.189 52.4688C864.775 62.2158 896.223 104.906 908.911 175.623C913.467 201.018 914.43 214.591 914.468 253.938C914.504 291.849 913.963 301.351 909.969 332.938C902.236 394.086 886.056 454.398 866.902 493.469L861.004 505.5V727.219V948.938H818.504H776.004V942.376C776.004 938.766 780.504 838.444 786.004 719.438L796.004 503.063V277V50.9378H803.439C807.528 50.9378 814.165 51.6268 818.189 52.4688ZM123.004 140.938V229.938H133.504H144.004V140.938V51.9378H152.504H161.004V140.938V229.938H171.621H182.239L181.85 140.938L181.461 51.9378H189.733H198.004V115.276C198.004 150.112 198.301 190.162 198.664 204.276L199.325 229.938H209.414H219.504L219.238 140.938L218.972 51.9378H227.488H236.004V166.228C236.004 287.981 236.11 285.055 231.292 296.438C228.563 302.888 223.15 311.075 218.154 316.311C212.901 321.816 200.721 330.216 195.485 331.944C193.57 332.576 192.004 333.171 192.005 333.266C192.005 333.36 198.08 459.389 205.505 613.33C212.929 767.27 218.999 897.545 218.993 902.83C218.977 917.012 215.686 926.087 207.313 935.039C181.526 962.607 136.216 950.128 128.519 913.338C127.324 907.628 128.446 877.204 139.072 627.194C145.611 473.328 150.969 344.288 150.978 340.438L150.995 333.438L142.249 328.982C125.208 320.298 112.13 303.384 108.582 285.438C107.479 279.86 107.06 255.433 106.52 165.188L105.843 51.9378H114.423H123.004V140.938ZM526.004 195.809V225.68L531.254 226.359C582.47 232.982 619.386 256.212 643.476 296.98C649.416 307.033 658.03 326.51 658.322 330.549C658.496 332.956 656.935 333.717 624.564 347.005C605.897 354.668 590.505 360.938 590.36 360.938C590.215 360.938 587.62 355.876 584.593 349.688C576.535 333.212 569.871 323.615 559.074 312.938C541.754 295.811 525.262 288.938 501.481 288.938C478.555 288.938 459.382 297.299 446.234 313.03C434.652 326.888 430.034 339.691 430.034 357.938C430.034 384.05 439.449 399.993 462.575 413.04C477.206 421.294 489.807 426.797 526.504 440.96C563.835 455.367 581.625 463.028 600.729 472.926C619.431 482.615 627.009 487.953 639.076 499.938C660.009 520.729 671.148 542.369 676.653 572.938C679.171 586.92 678.94 615.65 676.188 630.96C670.405 663.122 657.455 688.496 635.554 710.58C619.598 726.668 600.759 738.07 577.057 745.984C566.45 749.526 543.626 754.46 533.011 755.506L526.004 756.196V795.067V833.938H499.004H472.004V795.499V757.061L467.254 756.429C432.056 751.745 408.651 743.672 386.632 728.618C359.223 709.88 338.671 680.892 326.238 643.438C324.047 636.838 321.992 630.308 321.67 628.926L321.085 626.414L359.295 616.513C380.31 611.068 397.982 606.445 398.565 606.241C399.154 606.035 400.843 610.007 402.355 615.153C408.62 636.472 421.976 657.394 436.217 668.198C455.701 682.98 473.424 688.393 502.004 688.29C524.907 688.208 539.77 684.511 553.3 675.529C566.845 666.539 579.195 648.319 582.509 632.438C584.374 623.501 584.385 606.398 582.531 597.651C576.411 568.77 555.929 554.971 477.817 527.106C428.35 509.46 397.382 493.69 379.991 477.289C358.138 456.682 344.19 430.438 339.676 401.438C332.968 358.348 341.469 318.772 364.987 283.602C385.39 253.09 413.912 236.194 459.504 227.614L471.504 225.355L471.769 195.647L472.034 165.938H499.019H526.004V195.809Z" fill="#23584C"/>
</svg>
